DataType=double
version=3
OpenSimVersion=4.5
endheader
time	pelvis_tilt	pelvis_list	pelvis_rotation	pelvis_tx	pelvis_ty	pelvis_tz	hip_flexion_r	hip_adduction_r	hip_rotation_r	knee_angle_r	knee_frontal_r	knee_adduction_r	knee_angle_r_beta	ankle_angle_r	subtalar_angle_r	mtp_angle_r	hip_flexion_l	hip_adduction_l	hip_rotation_l	knee_angle_l	knee_frontal_l	knee_adduction_l	knee_angle_l_beta	ankle_angle_l	subtalar_angle_l	mtp_angle_l	lumbar_extension	lumbar_bending	lumbar_rotation	arm_flex_r	arm_add_r	arm_rot_r	elbow_flex_r	pro_sup_r	wrist_flex_r	wrist_dev_r	arm_flex_l	arm_add_l	arm_rot_l	elbow_flex_l	pro_sup_l	wrist_flex_l	wrist_dev_l
2.295	-0.110130507132693	-0.003242908771815024	0.005181689459814735	0.8263365196389045	0.945248772436342	0.4942663065870608	0.519437912135386	-0.009346880666061905	0.03964422933531141	0.2817291090292923	0	0	0.2817291090292923	0.05015040163798914	0.03595340686426163	-0.2257963213008227	-0.07769229504408953	-0.03710263146723347	-0.0008242317990873119	0.5237165195582836	0	0	0.5237165195582836	0.04517324688023672	0.01530587046678946	-0.7170390042353019	-0.06371063140611619	0.04334602130411841	0.0048499578995316	-0.2349878235664793	-0.2382906201062136	-0.1175964275352153	0.5438380256866897	1.57079633	0	0	0.07449398482808374	-0.4328715208489112	0.09592111524177305	1.192973600886827	1.57079633	0	0
2.3	-0.1071745882962582	-0.008483066316777439	0.006878686796372633	0.8271375260242919	0.9451415778043215	0.4949997484712405	0.5161542699278889	-0.003316445621343502	0.0361460769976553	0.2968925350376945	0	0	0.2968925350376945	0.04615476205177074	0.03205377941292328	-0.2263466589455136	-0.07266762354129264	-0.04559751987366904	-0.00341374888941641	0.5501222746355973	0	0	0.5501222746355973	0.02727901868584707	0.007471358666936996	-0.719836022070083	-0.06621180041787036	0.04899707904317219	0.00480234117242503	-0.2320754912554737	-0.2404851455382574	-0.1164130341839869	0.5458445941638495	1.57079633	0	0	0.07095307861960763	-0.429891289577146	0.09406564493422262	1.192962601331232	1.57079633	0	0
2.305	-0.104284597478754	-0.0135707967226282	0.008571173064214167	0.8279103732970293	0.9450755313309005	0.4957417681285969	0.512765969133688	0.002626512845353649	0.03294341942511805	0.3117924809400032	0	0	0.3117924809400032	0.04259229575209639	0.02775088913720833	-0.2264275782196903	-0.06670642113228803	-0.05388025185464038	-0.005568640860180642	0.5775399679511717	0	0	0.5775399679511717	0.008527339831295937	-0.001042202844372529	-0.7198934378363201	-0.06865616587700561	0.05440605856311709	0.004758301947555226	-0.2289680767032161	-0.2426420247540688	-0.1151288186558342	0.5480071078282649	1.57079633	0	0	0.06735229000088695	-0.4269044875842047	0.09232734710289608	1.19240693348172	1.57079633	0	0
2.31	-0.1014845814309994	-0.01847067342054296	0.01025764317933727	0.82865006376227	0.9450511151653912	0.4964897388033812	0.5092639688863063	0.008445455512169121	0.03006882938402124	0.3262895561511971	0	0	0.3262895561511971	0.03952844737411049	0.02310101644231373	-0.2260287506716451	-0.05980238134803639	-0.0618834304404373	-0.007247976700398506	0.6058847977500713	0	0	0.6058847977500713	-0.01092199063456089	-0.01014824135355062	-0.7171525338979254	-0.07102493345903385	0.05952994404565597	0.004720360887444995	-0.2256713082711565	-0.2447500220060351	-0.1137616686566436	0.5503253889617276	1.57079633	0	0	0.06371452258397466	-0.423922404557976	0.09072363892125797	1.191295670298316	1.57079633	0	0
2.315	-0.09879664583750582	-0.02315063028675172	0.01193664237975503	0.8293519624478275	0.9450689291644648	0.4972407316851857	0.5056380493640268	0.01410608000719473	0.02754865131433309	0.3402556625818579	0	0	0.3402556625818579	0.03701773631886821	0.01816288040779799	-0.2251482241153593	-0.05195798672120033	-0.06954251433131672	-0.008416428769870969	0.6350609433704081	0	0	0.6350609433704081	-0.03088982827820424	-0.01974786992873367	-0.7115978627229691	-0.07330151055399664	0.06433053088883373	0.004690293913786272	-0.2221911073231946	-0.2467992608767892	-0.1123312234924577	0.5527983429900352	1.57079633	0	0	0.06006182036483239	-0.4209546769630266	0.08927018206127005	1.189619960153764	1.57079633	0	0
2.32	-0.09624074405715378	-0.02758222922910525	0.01360671621357424	0.8300118565570759	0.9451296740567423	0.4979915581416111	0.5018770634971201	0.01957657711627016	0.02540260567370486	0.3535750358311185	0	0	0.3535750358311185	0.03510282822154305	0.01299670204497102	-0.2237925041335152	-0.04318449355402704	-0.07679662061646339	-0.009045076044646029	0.6649621806097737	0	0	0.6649621806097737	-0.05118031135549216	-0.02973162672736818	-0.703258529466072	-0.07547157286514659	0.06877474700920229	0.004669100636043554	-0.2185335805517362	-0.2487813175204838	-0.1108584851145865	0.5554240535702923	1.57079633	0	0	0.05641498175480665	-0.4180092706899078	0.08798066389233902	1.187373082725515	1.57079633	0	0
2.325	-0.09383452832263332	-0.03174084790746936	0.01526634921058468	0.8306260065605564	0.9452341257298177	0.4987388210911105	0.4979692251362781	0.02482784397055066	0.02364357202921936	0.3661450575969309	0	0	0.3661450575969309	0.0338139449114917	0.00766329526747828	-0.2219764069458286	-0.03350173155682867	-0.08358927692155338	-0.009112113863157363	0.6954726323784598	0	0	0.6954726323784598	-0.07158395401777043	-0.03998151692106393	-0.6922084693780057	-0.07752305732044767	0.07283485643515954	0.004657003757596637	-0.2147050147954046	-0.2506892827386559	-0.1093653819590592	0.5581999141590211	1.57079633	0	0	0.05279318158018879	-0.4150925095276466	0.08686662941878226	1.184550476072367	1.57079633	0	0
2.33	-0.09159326207164485	-0.03560579250965593	0.01691389623698473	0.8311911874597016	0.9453831014185381	0.4994789742790172	0.4939024205954066	0.0298336581688046	0.02227755450896313	0.3778768319654291	0	0	0.3778768319654291	0.0331686173645273	0.002223196772698759	-0.219722685825192	-0.02293772477105593	-0.08986911734378518	-0.008603450208089058	0.7264676414758851	0	0	0.7264676414758851	-0.09188114097687708	-0.05037331095714183	-0.6785656910926992	-0.0794460899206916	0.07648855166765911	0.004653477131297821	-0.2107118713380925	-0.2525177936932442	-0.1078742992911791	0.5611227967999934	1.57079633	0	0	0.04921361048339935	-0.4122091458586845	0.08593736641249924	1.181149736636672	1.57079633	0	0
2.335	-0.08952979149310396	-0.03916034266502703	0.01854751176156022	0.8317047188816938	0.9455774187274476	0.500208387869065	0.4896645319645727	0.03457081746477485	0.02130382652873431	0.388695524461654	0	0	0.388695524461654	0.03317177499361489	-0.00326415711893957	-0.2170614413665267	-0.01152814305232552	-0.09559051772057453	-0.00751316981610696	0.7578147516173284	0	0	0.7578147516173284	-0.1118459466741054	-0.06077904408284768	-0.6624904857081177	-0.08123285812455296	0.07971894479676755	0.004657297989012964	-0.2065607764840746	-0.2542630372785533	-0.1064075893059405	0.5641892577820902	1.57079633	0	0	0.04569114118592991	-0.4093624683553774	0.08519984337986232	1.177170594108452	1.57079633	0	0
2.34	-0.08765457247209857	-0.04239173638382471	0.02016508203416076	0.8321644829877691	0.9458178486997955	0.5009234185430499	0.4852437606509967	0.03901924950441473	0.02071524648984539	0.3985404682774376	0	0	0.3985404682774376	0.03381615451283522	-0.008741200042858995	-0.2140293346406791	0.0006844011238025804	-0.1007141656607044	-0.005843850565117326	0.7893747808058982	0	0	0.7893747808058982	-0.1312501914387122	-0.07106965487160241	-0.6441826313156497	-0.08287743915299005	0.08251446910437275	0.004666618269480212	-0.2022585051574239	-0.2559227279500549	-0.1049870739088337	0.5673957776932981	1.57079633	0	0	0.04223803075483783	-0.4065544403905772	0.08465869806728182	1.172614863345818	1.57079633	0	0
2.345	-0.08597574584538531	-0.04529110234700339	0.02176416343592437	0.8325689297630363	0.9461050645719511	0.5016204822251009	0.480628937778928	0.04316209525674848	0.02049873239584038	0.4073650462750856	0	0	0.4073650462750856	0.03508300258808855	-0.01415294484614653	-0.2106686313072745	0.01365118743080301	-0.1052075593535779	-0.003606721652393077	0.8210029674829795	0	0	0.8210029674829795	-0.1498676398140892	-0.08111769519349651	-0.6238776522613266	-0.0843755979964227	0.0848687027527095	0.00467905120617646	-0.1978119547761824	-0.2574960629496582	-0.1036335534056512	0.5707390303653196	1.57079633	0	0	0.03886366723112243	-0.4037858623674783	0.08431627346998703	1.167486375784597	1.57079633	0	0
2.35	-0.08449925065841626	-0.04785334585659494	0.02334192826468194	0.8329170699844789	0.9464395882775293	0.502296127535695	0.4758098060484346	0.04698576863951155	0.02063587987389998	0.415136360401485	0	0	0.415136360401485	0.03694303828705381	-0.0194476256892386	-0.2070261128685947	0.02731832254004707	-0.109045427574254	-0.0008216586024403158	0.8525501663596506	0	0	0.8525501663596506	-0.1674782418741866	-0.09080004075843567	-0.6018422208750149	-0.08572457054152918	0.08678012531263758	0.004691771199645247	-0.1932281079888387	-0.2589836575892533	-0.1023663349683932	0.5742161721973872	1.57079633	0	0	0.03557436785248801	-0.4010565509465135	0.08417269828296062	1.161790892806631	1.57079633	0	0
2.355	-0.08322896355288892	-0.05007699433416114	0.0248951183125509	0.8332084567928264	0.9468217369910414	0.5029471080508094	0.4707772578096973	0.05047999391813878	0.02110370395538128	0.4218347030751544	0	0	0.4218347030751544	0.0393576340845276	-0.02457726745868247	-0.2031518968894391	0.04162773858034624	-0.1122100627776483	0.002482985451724519	0.8838640698740255	0	0	0.8838640698740255	-0.1838723163006003	-0.1000005300342091	-0.5783688155990413	-0.08692284698966249	0.0882518177309857	0.004701625921890494	-0.1885139847167143	-0.2603874630162487	-0.1012027949872052	0.5778251413185693	1.57079633	0	0	0.03237323503991142	-0.3983655279476886	0.08422600862697197	1.155536003257272	1.57079633	0	0
2.36	-0.08216685292955228	-0.05196400856055575	0.02642000697479438	0.8334431571954795	0.9472515719545572	0.5035704513854858	0.4655235173025942	0.05363782185236442	0.02187548038695102	0.4274528486541193	0	0	0.4274528486541193	0.04228016854867082	-0.0294981793932166	-0.1990982104424875	0.05651821825302361	-0.1146915599131313	0.006270709815171683	0.9147904336106736	0	0	0.9147904336106736	-0.1988545740910119	-0.1086124600732487	-0.5537697723740066	-0.08796996860376195	0.08929111709413534	0.004705259115238254	-0.1836765857708488	-0.2617106689132051	-0.1001579887422143	0.5815649550783383	1.57079633	0	0	0.02926007546817401	-0.3957112115391159	0.08447230725690685	1.148731006869662	1.57079633	0	0
2.365	-0.08131313832988399	-0.05351956624452336	0.02791237152312799	0.8336217150562337	0.947728851594368	0.5041635230935972	0.4600422601641222	0.05645562498903229	0.02292165814971067	0.4319951870683205	0	0	0.4319951870683205	0.045657500475863	-0.03417137212402428	-0.19491816062674	0.0719264121328955	-0.1164879548626144	0.01049735291836783	0.9451742886194285	0	0	0.9451742886194285	-0.2122478844401509	-0.1165408706880061	-0.5283708849151547	-0.08886634762586607	0.08990923835201819	0.00469924134064402	-0.1787228317857524	-0.2629575937333411	-0.09924431922582708	0.5854359938393549	1.57079633	0	0	0.0262313866755922	-0.3930916023786314	0.08490595541362876	1.141386785126977	1.57079633	0	0
2.37	-0.08066644767851633	-0.05475182451820566	0.0293674779276007	0.8337451072752907	0.9482529906119365	0.5047240834216531	0.4543286690261934	0.05893307176651034	0.02421081187576875	0.43547672555646	0	0	0.43547672555646	0.04943151329945909	-0.03856289869803255	-0.1906645433091365	0.08778781742873909	-0.1176052576466826	0.01511172867428443	0.9748611290480864	0	0	0.9748611290480864	-0.2238966899258285	-0.1237045535150579	-0.5025047234118131	-0.08961311673410541	0.09012087533900218	0.004680204740624506	-0.1736595023002332	-0.2641335651298321	-0.09847127471454778	0.5894402585591081	1.57079633	0	0	0.02328041459476256	-0.3905044578047374	0.08551979137569883	1.133515661270535	1.57079633	0	0
2.375	-0.08022396740602217	-0.05567166760257537	0.03078008116803295	0.833814694965006	0.9488230263617523	0.5052503350733942	0.4483794297517835	0.06107307824418495	0.02571060098719797	0.437921987768447	0	0	0.437921987768447	0.05354067983446015	-0.042644120666882	-0.1863887262985449	0.104037692030587	-0.1180573767339754	0.02005640326626876	1.003698069298065	0	0	1.003698069298065	-0.2336699865946049	-0.1300377296787982	-0.4765038496571362	-0.09021201078847899	0.08994379294569263	0.004644976860880996	-0.168493180635114	-0.2652447931497797	-0.09784524206760056	0.5935815892547145	1.57079633	0	0	0.02039728407423323	-0.3879474479681717	0.08630536888588589	1.125131251697618	1.57079633	0	0
